<svg xmlns="http://www.w3.org/2000/svg" width="27" height="30">
    <path fill="#262626" fill-rule="evenodd" d="M23.487 8.222H8.862v18.687h14.625V8.222zm1.906-1.875c.521.5.782 1.125.782 1.875v18.687c0 .75-.261 1.375-.782 1.875s-1.156.771-1.906.813H8.862c-.75-.042-1.386-.313-1.906-.813-.522-.5-.782-1.125-.782-1.875V8.222c0-.75.26-1.375.782-1.875.52-.5 1.156-.75 1.906-.75h14.625c.75 0 1.385.25 1.906.75zm-5.906-3.438h-16v18.688H.862V2.909c0-.749.25-1.375.75-1.875.5-.499 1.125-.77 1.875-.812h16v2.687z"/>
</svg>
