<svg id="Warstwa_1" data-name="Warstwa 1" xmlns="http://www.w3.org/2000/svg" viewBox="0 0 1578.02 423.44"><defs><style>.cls-1{fill:#fff;stroke-width:5px;}.cls-1,.cls-4{stroke:#000;}.cls-1,.cls-3,.cls-4{stroke-miterlimit:10;}.cls-2{fill:#edc2c9;}.cls-3{fill:none;stroke:#1e1e1e;stroke-width:2px;}.cls-4{stroke-linecap:round;}</style></defs><title>socialmedia - podłużne bez tła 1</title><path class="cls-1" d="M318.8,507.51l53.36-61.66a40,40,0,0,1,27.77-11.21h77.21a55,55,0,0,0,55-55v-228a55,55,0,0,0-55-55h-346a55,55,0,0,0-55,55V377.19a55,55,0,0,0,53.83,55L213.29,434a40,40,0,0,1,27.53,11.81l53.61,61.49C304.17,517.45,310.3,517.75,318.8,507.51Z" transform="translate(-73.69 -94.1)"/><polygon class="cls-2" points="225.62 100.34 182.46 64 120.95 63 79.94 110.34 79.94 172.67 114.79 215.34 227.13 322.34 340.79 220.34 377.13 162 365.79 100.34 330.79 64 274.79 60.67 225.62 100.34"/><polyline class="cls-3" points="225.95 322.67 340.28 220 375.62 161 365.95 99.34 329.28 64.34 273.62 60.34 225.62 100.34 243.62 144.34 218.28 220.34 236.62 291.67 225.95 322.67"/><polyline class="cls-3" points="375.62 161 356.28 143.34 243.62 144.34 137.28 135.67 114.61 193 218.28 220.34 189.95 275 225.95 322.67 114.61 213.67 114.61 193"/><polygon class="cls-3" points="340.28 220 356.28 143.34 236.62 291.67 340.28 220"/><polyline class="cls-3" points="337.07 87.14 243.62 144.34 273.62 60.34 365.95 99.34 356.28 143.34 329.28 64.34"/><polyline class="cls-3" points="78.61 171.34 137.28 135.67 218.28 220.34 356.28 143.34"/><polyline class="cls-3" points="236.62 291.67 189.95 275 114.61 193 78.61 171.34"/><polyline class="cls-3" points="189.95 275 114.61 213.67 78.61 171.34 117.95 89.67 179.95 63 243.62 144.34 117.95 89.67 137.28 135.67"/><polyline class="cls-3" points="78.61 108.67 117.95 89.67 120.95 63 179.95 63 225.62 100.34"/><line class="cls-3" x1="120.95" y1="63" x2="78.61" y2="108.67"/><line class="cls-3" x1="78.61" y1="171.34" x2="78.61" y2="108.67"/><circle class="cls-4" cx="243.61" cy="143.34" r="6.75"/><circle class="cls-4" cx="356.28" cy="144.34" r="6.75"/><circle class="cls-4" cx="235.28" cy="291.67" r="6.75"/><circle class="cls-4" cx="118.28" cy="89.67" r="6.75"/><circle class="cls-4" cx="114.61" cy="193" r="4.86"/><circle class="cls-4" cx="336.2" cy="87.78" r="4.86"/><circle class="cls-4" cx="341.06" cy="220.42" r="4.86"/><circle class="cls-4" cx="191" cy="275" r="4.86"/><circle class="cls-4" cx="225.61" cy="99.04" r="4.86"/><circle class="cls-4" cx="137.95" cy="136.59" r="4.86"/><circle class="cls-4" cx="218.86" cy="220.42" r="6.75"/><path d="M751.52,146.63h10.72v81.65H751.07V167.12l.56,3.59-20.1,46.21h-8l-20.1-45.09.56-4.72v61.15H692.84V146.63h10.72l24,53.91Z" transform="translate(-73.69 -94.1)"/><path d="M816.2,146.63H826l30.1,81.65H843.71L821.08,162.4l-22.63,65.87H786.1ZM800,199.46h43v10.89H800Z" transform="translate(-73.69 -94.1)"/><path d="M938.6,146.63h10.72v81.65H938.15V167.12l.56,3.59-20.1,46.21h-8l-20.1-45.09.56-4.72v61.15H879.92V146.63h10.72l24,53.91Z" transform="translate(-73.69 -94.1)"/><path d="M1005.58,195.08v33.19H994.12V195.08l-24.87-48.46H982l17.86,36.84,17.86-36.84h12.75Z" transform="translate(-73.69 -94.1)"/><path d="M1081.53,146.57H1093v81.7h-11.46Zm5,36.27h27.85a10.72,10.72,0,0,0,5.78-1.57,10.33,10.33,0,0,0,3.9-4.46,16.76,16.76,0,0,0,0-13.31,10.42,10.42,0,0,0-3.87-4.46,10.69,10.69,0,0,0-5.81-1.57h-27.85V146.57h27.4a25.61,25.61,0,0,1,12.44,2.92,20.48,20.48,0,0,1,8.31,8.28,27.37,27.37,0,0,1,0,24.76,20.65,20.65,0,0,1-8.34,8.28,25.47,25.47,0,0,1-12.38,2.92h-27.4Zm22.24,8.37,11.4-2.58L1141,228.27h-13.59Z" transform="translate(-73.69 -94.1)"/><path d="M1180,225.38a25.5,25.5,0,0,1-10.08-10.56,33.62,33.62,0,0,1-3.57-15.81V175.88a33.63,33.63,0,0,1,3.57-15.81A25.51,25.51,0,0,1,1180,149.52a32.19,32.19,0,0,1,30.1,0,25.52,25.52,0,0,1,10.08,10.56,33.65,33.65,0,0,1,3.57,15.81V199a33.65,33.65,0,0,1-3.57,15.81,25.51,25.51,0,0,1-10.08,10.56,32.19,32.19,0,0,1-30.1,0Zm23.95-9.83a15.3,15.3,0,0,0,6-6.46,21.26,21.26,0,0,0,2.11-9.69V175.49a21.27,21.27,0,0,0-2.11-9.69,15.31,15.31,0,0,0-6-6.46,18.55,18.55,0,0,0-17.8,0,15.31,15.31,0,0,0-6,6.46,21.27,21.27,0,0,0-2.11,9.69v23.92a21.26,21.26,0,0,0,2.11,9.69,15.3,15.3,0,0,0,6,6.46,18.55,18.55,0,0,0,17.8,0Z" transform="translate(-73.69 -94.1)"/><path d="M1312.4,146.63h10.72v81.65H1312V167.12l.56,3.59-20.1,46.21h-8l-20.1-45.09.56-4.72v61.15h-11.17V146.63h10.72l24,53.91Z" transform="translate(-73.69 -94.1)"/><path d="M1377.08,146.63h9.77l30.1,81.65H1404.6L1382,162.4l-22.63,65.87H1347Zm-16.23,52.84h43v10.89h-43Z" transform="translate(-73.69 -94.1)"/><path d="M1440.8,146.63h10.39l39.92,63.12-1.35,1.46V146.63h11.34v81.59h-10.5l-39.81-62.16,1.35-1.46v63.62H1440.8Z" transform="translate(-73.69 -94.1)"/><path d="M1551.47,229.11l-5.28-1.12a42.18,42.18,0,0,1-9.86-3.37,41.61,41.61,0,0,1-8.56-5.62l7.13-8.76a32.25,32.25,0,0,0,10.28,6.06,35.72,35.72,0,0,0,12.19,2q8.87,0,13.76-3.28a10.56,10.56,0,0,0,4.88-9.29v-.06a9.83,9.83,0,0,0-2.22-6.77,13.26,13.26,0,0,0-5.73-3.71A63.81,63.81,0,0,0,1559,193a1.18,1.18,0,0,0-.37-.06,1.13,1.13,0,0,1-.37-.06l-.84-.17a87.39,87.39,0,0,1-13.34-3.17,18.78,18.78,0,0,1-8.79-6.46q-3.65-4.69-3.65-13.34v-.06a23.68,23.68,0,0,1,3.4-12.94,21.34,21.34,0,0,1,9.91-8.17,42.93,42.93,0,0,1,24.29-1.85,42.85,42.85,0,0,1,8.37,2.84,48.18,48.18,0,0,1,8.12,4.74l-6.51,9.1a38.16,38.16,0,0,0-9.29-5.14,26.66,26.66,0,0,0-9.29-1.71q-8.37,0-13,3.34a11,11,0,0,0-4.63,9.46v.06a9,9,0,0,0,2.39,6.63,14.43,14.43,0,0,0,6,3.57,89.46,89.46,0,0,0,9.91,2.39l.42.08.42.08.62.11.62.11A67.85,67.85,0,0,1,1575.7,186a19.33,19.33,0,0,1,8.31,6.71q3.34,4.63,3.34,12.66v.11a22.49,22.49,0,0,1-3.54,12.77,22,22,0,0,1-10.25,8.09,42.28,42.28,0,0,1-16.2,2.78Z" transform="translate(-73.69 -94.1)"/><path d="M678.68,316.51l-35.54,60.87H679.8v10.89H629v-9.88l35.83-60.87H630.05V306.63h48.63Z" transform="translate(-73.69 -94.1)"/><path d="M792,359v9.49H732.56V359Zm3.31-32.51v9.49H735.88v-9.49ZM753.9,306.63h9.15l-13.93,81.65H740Zm23.81,0h9.15l-13.93,81.65h-9.15Z" transform="translate(-73.69 -94.1)"/><path d="M839.52,389.11,834.24,388a42.13,42.13,0,0,1-9.85-3.37,41.6,41.6,0,0,1-8.56-5.62l7.13-8.76a32.24,32.24,0,0,0,10.28,6.06,35.72,35.72,0,0,0,12.19,2q8.87,0,13.76-3.28a10.56,10.56,0,0,0,4.89-9.29v-.06a9.83,9.83,0,0,0-2.22-6.77,13.27,13.27,0,0,0-5.73-3.71A63.71,63.71,0,0,0,847,353a1.16,1.16,0,0,0-.37-.06,1.12,1.12,0,0,1-.36-.06l-.84-.17a87.4,87.4,0,0,1-13.34-3.17,18.78,18.78,0,0,1-8.79-6.46q-3.65-4.69-3.65-13.34v-.06a23.68,23.68,0,0,1,3.4-12.94,21.34,21.34,0,0,1,9.91-8.17,42.91,42.91,0,0,1,24.29-1.85,42.85,42.85,0,0,1,8.37,2.84,48.27,48.27,0,0,1,8.11,4.74l-6.51,9.1a38.14,38.14,0,0,0-9.29-5.14,26.64,26.64,0,0,0-9.29-1.71q-8.37,0-13,3.34a11,11,0,0,0-4.63,9.46v.06a9,9,0,0,0,2.39,6.63,14.42,14.42,0,0,0,6,3.57,89.65,89.65,0,0,0,9.91,2.39l.42.08.42.08.62.11.62.11A68,68,0,0,1,863.75,346a19.32,19.32,0,0,1,8.31,6.71q3.34,4.63,3.34,12.66v.11a22.49,22.49,0,0,1-3.54,12.77,22,22,0,0,1-10.25,8.09,42.28,42.28,0,0,1-16.2,2.78Z" transform="translate(-73.69 -94.1)"/><path d="M915.15,385.38a25.5,25.5,0,0,1-10.08-10.56A33.63,33.63,0,0,1,901.5,359V335.88a33.63,33.63,0,0,1,3.57-15.81,25.51,25.51,0,0,1,10.08-10.56,32.19,32.19,0,0,1,30.1,0,25.52,25.52,0,0,1,10.08,10.56,33.65,33.65,0,0,1,3.57,15.81V359a33.65,33.65,0,0,1-3.57,15.81,25.51,25.51,0,0,1-10.08,10.56,32.2,32.2,0,0,1-30.1,0Zm23.95-9.83a15.3,15.3,0,0,0,6-6.46,21.26,21.26,0,0,0,2.11-9.69V335.49A21.27,21.27,0,0,0,945,325.8a15.31,15.31,0,0,0-6-6.46,18.55,18.55,0,0,0-17.8,0,15.31,15.31,0,0,0-6,6.46,21.27,21.27,0,0,0-2.11,9.69v23.92a21.26,21.26,0,0,0,2.11,9.69,15.3,15.3,0,0,0,6,6.46,18.55,18.55,0,0,0,17.8,0Z" transform="translate(-73.69 -94.1)"/><path d="M1007.17,389.11l-6.43-3.76a25.54,25.54,0,0,1-10-10.67,34.62,34.62,0,0,1-3.54-16V336.27a34.62,34.62,0,0,1,3.54-16,25.71,25.71,0,0,1,10-10.7,28.8,28.8,0,0,1,14.91-3.79,28,28,0,0,1,12.92,3,27.24,27.24,0,0,1,9.85,8.51,31.9,31.9,0,0,1,5.36,12.75H1032a18.23,18.23,0,0,0-3.56-6.82,17.49,17.49,0,0,0-5.87-4.63,16.46,16.46,0,0,0-15.72.79,16,16,0,0,0-5.84,6.77A23.29,23.29,0,0,0,999,336.27v22.41a23.33,23.33,0,0,0,2.08,10.11,15.81,15.81,0,0,0,5.84,6.77,16,16,0,0,0,8.76,2.39,16.75,16.75,0,0,0,7-1.52,16.47,16.47,0,0,0,5.84-4.49,17.83,17.83,0,0,0,3.56-7.08h11.74a31.68,31.68,0,0,1-5.39,12.75,27.47,27.47,0,0,1-9.88,8.51,27.91,27.91,0,0,1-12.86,3Z" transform="translate(-73.69 -94.1)"/><path d="M1083,388.27h-11.46V306.63H1083Z" transform="translate(-73.69 -94.1)"/><path d="M1137,306.63h9.77l30.1,81.65h-12.35l-22.63-65.87-22.63,65.87h-12.35Zm-16.23,52.84h43v10.89h-43Z" transform="translate(-73.69 -94.1)"/><path d="M1200.69,306.63h11.46v81.65h-11.46Zm5.73,70.75h46.72v10.89h-46.72Z" transform="translate(-73.69 -94.1)"/><path d="M1336.8,306.63h10.72v81.65h-11.17V327.12l.56,3.59-20.1,46.21h-8l-20.1-45.09.56-4.72v61.15h-11.17V306.63h10.72l24,53.91Z" transform="translate(-73.69 -94.1)"/><path d="M1379.24,306.63h11.46v81.65h-11.46Zm5.56,0h46.89v10.89h-46.89Zm0,35.66h40.71v10.89h-40.71Zm0,35.09h46.89v10.89h-46.89Z" transform="translate(-73.69 -94.1)"/><path d="M1459.47,306.63h11.46v81.65h-11.46Zm7.75,70.75h18.47q9,0,14-4.69t5-13.22v-24q0-8.53-5-13.22t-14-4.69h-18.47V306.63h18.14a37.75,37.75,0,0,1,16.79,3.42,23.89,23.89,0,0,1,10.61,10,32.16,32.16,0,0,1,3.65,15.83V359a32.17,32.17,0,0,1-3.65,15.84,23.85,23.85,0,0,1-10.64,10,37.89,37.89,0,0,1-16.82,3.43h-18.08Z" transform="translate(-73.69 -94.1)"/><path d="M1557.89,388.27h-11.46V306.63h11.46Z" transform="translate(-73.69 -94.1)"/><path d="M1611.84,306.63h9.77l30.1,81.65h-12.35l-22.63-65.87-22.63,65.87h-12.35Zm-16.23,52.84h43v10.89h-43Z" transform="translate(-73.69 -94.1)"/></svg>