<svg id="Warstwa_1" data-name="Warstwa 1" xmlns="http://www.w3.org/2000/svg" viewBox="0 0 460.96 423.44"><defs><style>.cls-1{fill:#edc2c9;stroke-width:5px;}.cls-1,.cls-4{stroke:#000;}.cls-1,.cls-3,.cls-4{stroke-miterlimit:10;}.cls-2{fill:#fff;}.cls-3{fill:none;stroke:#1e1e1e;stroke-width:2px;}.cls-4{stroke-linecap:round;}</style></defs><title>nowe logo romans z sm</title><path class="cls-1" d="M312.47,881.57l53.36-61.66A40,40,0,0,1,393.6,808.7h77.21a55,55,0,0,0,55-55v-228a55,55,0,0,0-55-55h-346a55,55,0,0,0-55,55V751.26a55,55,0,0,0,53.83,55L207,808a40,40,0,0,1,27.53,11.81l53.61,61.49C297.83,891.52,304,891.81,312.47,881.57Z" transform="translate(-67.35 -468.17)"/><polygon class="cls-2" points="230.03 115.8 198.56 89.3 153.71 88.57 123.8 123.09 123.8 168.54 149.22 199.66 231.14 277.68 314.02 203.3 340.52 160.76 332.25 115.8 306.73 89.3 265.9 86.87 230.03 115.8"/><polyline class="cls-3" points="230.28 277.93 313.65 203.06 339.42 160.04 332.37 115.07 305.63 89.55 265.04 86.63 230.03 115.8 243.16 147.88 224.69 203.3 238.06 255.32 230.28 277.93"/><polyline class="cls-3" points="339.42 160.04 325.32 147.15 243.16 147.88 165.62 141.56 149.09 183.37 224.69 203.3 204.02 243.17 230.28 277.93 149.09 198.44 149.09 183.37"/><polygon class="cls-3" points="313.65 203.06 325.32 147.15 238.06 255.32 313.65 203.06"/><polyline class="cls-3" points="311.31 106.17 243.16 147.88 265.04 86.63 332.37 115.07 325.32 147.15 305.63 89.55"/><polyline class="cls-3" points="122.84 167.57 165.62 141.56 224.69 203.3 325.32 147.15"/><polyline class="cls-3" points="238.06 255.32 204.02 243.17 149.09 183.37 122.84 167.57"/><polyline class="cls-3" points="204.02 243.17 149.09 198.44 122.84 167.57 151.52 108.02 196.73 88.57 243.16 147.88 151.52 108.02 165.62 141.56"/><polyline class="cls-3" points="122.84 121.87 151.52 108.02 153.71 88.57 196.73 88.57 230.03 115.8"/><line class="cls-3" x1="153.71" y1="88.57" x2="122.84" y2="121.87"/><line class="cls-3" x1="122.84" y1="167.57" x2="122.84" y2="121.87"/><circle class="cls-4" cx="243.16" cy="147.15" r="4.92"/><circle class="cls-4" cx="325.32" cy="147.88" r="4.92"/><circle class="cls-4" cx="237.08" cy="255.32" r="4.92"/><circle class="cls-4" cx="151.76" cy="108.02" r="4.92"/><circle class="cls-4" cx="149.09" cy="183.37" r="3.55"/><circle class="cls-4" cx="310.67" cy="106.64" r="3.55"/><circle class="cls-4" cx="314.22" cy="203.36" r="3.55"/><circle class="cls-4" cx="204.79" cy="243.17" r="3.55"/><circle class="cls-4" cx="230.03" cy="114.85" r="3.55"/><circle class="cls-4" cx="166.1" cy="142.23" r="3.55"/><circle class="cls-4" cx="225.11" cy="203.36" r="4.92"/></svg>