<svg xmlns="http://www.w3.org/2000/svg" width="26" height="26" viewBox="0 0 26 26"><g><g><path fill="#2f2f2f" d="M13.175 9.585c.246.26.363.61.34 1.01-.048.826-.428 2.03-.763 3.091l-.103.327c-.146.49-.078.943.198 1.313.244.327 1.17.647 1.872.647.91 0 1.747-.547 2.357-1.542a5.998 5.998 0 0 0 .841-3.012c-.001-1.202-.453-2.212-1.307-2.92-.821-.68-1.95-1.042-3.268-1.043v.005c-1.093 0-2.15.275-2.974.774-.93.562-1.502 1.371-1.653 2.339-.295 1.383.074 3.15.448 3.712l-.04.15-.002.009c-.073.275-.208.788-.225.831-1.384-.526-2.568-2.454-2.037-4.99a5.783 5.783 0 0 1 2.195-3.471c1.234-.93 2.891-1.422 4.793-1.422l.007-.001v-.005c2.014 0 3.715.606 4.92 1.752 1.113 1.056 1.746 2.541 1.785 4.18a6.319 6.319 0 0 1-1.812 4.597c-1.07 1.096-2.493 1.75-3.805 1.75-.21 0-2.084-.034-2.98-1.193-.032.094-.073.22-.122.372-.43 1.32-1.434 4.41-2.419 5.7l-.795 1.041-.158-1.3c-.15-1.238.47-3.343 1.016-5.2l.003-.01.144-.49.028-.096c.245-.838.897-3.064.772-3.413-.332-.931-.34-1.776-.02-2.583.385-.972 1.158-1.318 1.752-1.318.404 0 .763.145 1.012.409zm12.77 11.503V5.594c0-2.756-2.243-5-5-5H5.453c-2.757 0-5 2.244-5 5v15.494c0 2.757 2.243 5 5 5h15.494c2.756 0 5-2.243 5-5z"/></g></g></svg>